<?xml version="1.0" encoding="UTF-8" standalone="no"?>
<!-- Created with Inkscape (http://www.inkscape.org/) -->

<svg
   xmlns:dc="http://purl.org/dc/elements/1.1/"
   xmlns:cc="http://creativecommons.org/ns#"
   xmlns:rdf="http://www.w3.org/1999/02/22-rdf-syntax-ns#"
   xmlns:svg="http://www.w3.org/2000/svg"
   xmlns="http://www.w3.org/2000/svg"
   xmlns:sodipodi="http://sodipodi.sourceforge.net/DTD/sodipodi-0.dtd"
   xmlns:inkscape="http://www.inkscape.org/namespaces/inkscape"
   width="480.88113"
   height="151.31857"
   id="svg3373"
   version="1.1"
   inkscape:version="0.48.3.1 r9886"
   sodipodi:docname="New document 3">
  <defs
     id="defs3375" />
  <sodipodi:namedview
     id="base"
     pagecolor="#ffffff"
     bordercolor="#666666"
     borderopacity="1.0"
     inkscape:pageopacity="0.0"
     inkscape:pageshadow="2"
     inkscape:zoom="0.35"
     inkscape:cx="206.86911"
     inkscape:cy="-184.34074"
     inkscape:document-units="px"
     inkscape:current-layer="layer1"
     showgrid="false"
     fit-margin-top="0.5"
     fit-margin-left="0.5"
     fit-margin-right="0.5"
     fit-margin-bottom="0.5"
     inkscape:window-width="1678"
     inkscape:window-height="1048"
     inkscape:window-x="0"
     inkscape:window-y="0"
     inkscape:window-maximized="0" />
  <metadata
     id="metadata3378">
    <rdf:RDF>
      <cc:Work
         rdf:about="">
        <dc:format>image/svg+xml</dc:format>
        <dc:type
           rdf:resource="http://purl.org/dc/dcmitype/StillImage" />
        <dc:title></dc:title>
      </cc:Work>
    </rdf:RDF>
  </metadata>
  <g
     inkscape:label="Layer 1"
     inkscape:groupmode="layer"
     id="layer1"
     transform="translate(-168.13088,-196.70285)">
    <flowRoot
       xml:space="preserve"
       id="flowRoot4437-09-2-2"
       style="font-size:4px;font-style:normal;font-weight:normal;line-height:125%;letter-spacing:0px;word-spacing:0px;fill:#3f7f00;fill-opacity:1;stroke:none;font-family:Sans"
       transform="matrix(11.262844,-0.1524481,0.1524481,11.262844,111.43894,151.40053)"
       inkscape:export-filename="/home/juncher/Dropbox/Sociale Grupper/DQBREW/logo5.png"
       inkscape:export-xdpi="112.56094"
       inkscape:export-ydpi="112.56094"><flowRegion
         id="flowRegion4439-9-6-9"><rect
           id="rect4441-3-8-8"
           width="8.0000019"
           height="11.714289"
           x="4.7142859"
           y="4.5714288"
           style="fill:#3f7f00;fill-opacity:1" /></flowRegion><flowPara
         id="flowPara4443-1-4-7"
         style="font-size:9px;font-style:normal;font-variant:normal;font-weight:bold;font-stretch:normal;fill:#3f7f00;fill-opacity:1;font-family:GFS Artemisia;-inkscape-font-specification:GFS Artemisia Bold">D</flowPara></flowRoot>    <flowRoot
       xml:space="preserve"
       id="flowRoot4437-2-8-8-3"
       style="font-size:4px;font-style:normal;font-weight:normal;line-height:125%;letter-spacing:0px;word-spacing:0px;fill:#3f7f00;fill-opacity:1;stroke:none;font-family:Sans"
       transform="matrix(11.245443,-0.64412779,0.64412779,11.245443,138.98092,169.09954)"
       inkscape:export-filename="/home/juncher/Dropbox/Sociale Grupper/DQBREW/logo5.png"
       inkscape:export-xdpi="112.56094"
       inkscape:export-ydpi="112.56094"><flowRegion
         id="flowRegion4439-6-5-8-1"><rect
           id="rect4441-5-4-7-6"
           width="8.0000019"
           height="11.714289"
           x="4.7142859"
           y="4.5714288"
           style="fill:#3f7f00;fill-opacity:1" /></flowRegion><flowPara
         id="flowPara4443-5-0-0-9"
         style="font-size:9px;font-style:normal;font-variant:normal;font-weight:bold;font-stretch:normal;fill:#3f7f00;fill-opacity:1;font-family:GFS Artemisia;-inkscape-font-specification:GFS Artemisia Bold">Q</flowPara></flowRoot>    <g
       id="g4261-6-9-3"
       transform="matrix(1.091895,0.11422424,-0.11422424,1.091895,-105.05176,-60.016005)"
       inkscape:export-filename="/home/juncher/Dropbox/Sociale Grupper/DQBREW/logo5.png"
       inkscape:export-xdpi="112.56094"
       inkscape:export-ydpi="112.56094">
      <path
         id="svg_346-8-9-2-0"
         d="m 442.25201,292.21069 c 0,0 -1.35026,-11.05697 0.97259,-14.71763 2.33076,-3.66507 5.18483,-6.79643 11.11873,-5.63863 5.92622,1.14325 0.3578,25.09464 0.3578,25.09464 l -12.44915,-4.73841 3e-5,3e-5 z"
         inkscape:connector-curvature="0"
         style="fill:#3f7f00;fill-opacity:1;stroke:#ffffff;stroke-width:0.53438151;stroke-linecap:round;stroke-linejoin:round" />
      <path
         style="fill:#3f7f00;fill-opacity:1;stroke:#ffffff;stroke-width:0.53438151;stroke-linecap:round;stroke-linejoin:round"
         inkscape:connector-curvature="0"
         d="m 442.3487,293.86265 c 0,0 -10.03511,-2.14015 -7.90501,10.16631 2.13197,12.30434 5.53375,22.64577 5.53375,22.64577 l -3.9457,0.6687 c 0,0 -7.11822,-21.41244 -7.06193,-22.02031 0.0754,-0.60612 -4.9227,-13.70139 -4.9227,-13.70139 l 10.41042,-4.16407 7.89117,6.40499 z"
         id="svg_358-6-6-6-8" />
      <path
         id="svg_360-1-3-3-8"
         d="m 399.25853,282.72923 c 0,0 -3.31699,-1.40526 -6.32745,-4.7788 -3.00737,-3.3631 -5.0432,-5.4045 -5.30795,-6.98883 -0.27476,-1.57797 -4.104,-9.69582 -4.104,-9.69582 0,0 -0.49584,-2.67538 -0.10202,-3.65077 0.4009,-0.98816 2.16985,-2.96334 2.16985,-2.96334 l 11.83647,7.25157 1.83511,20.82599 z"
         inkscape:connector-curvature="0"
         style="fill:#3f7f00;fill-opacity:1;stroke:#ffffff;stroke-width:0.53438151;stroke-linecap:round;stroke-linejoin:round" />
      <path
         id="svg_361-7-8-7-3"
         d="m 419.0039,208.73709 c 0,0 -1.82974,-6.32716 -0.0342,-9.40381 1.79559,-3.07651 4.80186,-7.51448 6.38379,-7.65925 1.58059,-0.15747 6.21631,2.21444 7.44677,6.2175 1.24025,3.99654 -5.31143,7.28393 -5.31143,7.28393 l -8.48489,3.56163 z"
         inkscape:connector-curvature="0"
         style="fill:#3f7f00;fill-opacity:1;stroke:#ffffff;stroke-width:0.53438151;stroke-linecap:round;stroke-linejoin:round" />
      <path
         id="svg_362-3-9-1-4"
         d="m 455.22692,222.66483 c 0,0 2.78946,-6.87487 -0.25447,-10.49276 -3.03483,-3.6097 -6.91915,-8.42793 -8.14072,-8.4082 -1.22344,0.0219 -4.28618,1.29378 -4.5529,2.39069 -0.26022,1.09889 2.02493,8.51132 2.45562,10.45086 0.42502,1.94598 0.50238,6.69612 0.50238,6.69612 l 9.99011,-0.63671 z"
         inkscape:connector-curvature="0"
         style="fill:#3f7f00;fill-opacity:1;stroke:#ffffff;stroke-width:0.53438151;stroke-linecap:round;stroke-linejoin:round" />
      <path
         id="svg_363-1-2-6-8"
         d="m 417.99196,220.08966 c 0,0 0.0178,-7.55846 1.80401,-10.64322 1.80426,-3.07263 7.44373,-13.41163 11.42009,-12.75166 3.98615,0.67645 8.43238,4.87654 9.24387,5.83673 0.8324,0.95983 0.19445,1.95396 2.62701,5.68632 2.42684,3.73884 2.14839,15.09002 2.14839,15.09002 l -11.19898,3.3584 -13.23177,-1.37471 -2.81263,-5.20188 z"
         inkscape:connector-curvature="0"
         style="fill:#3f7f00;fill-opacity:1;stroke:#ffffff;stroke-width:0.53438151;stroke-linecap:round;stroke-linejoin:round" />
      <path
         id="svg_364-0-9-5-2"
         d="m 394.2535,220.47352 c 0,0 -0.80298,-7.1873 0.17233,-11.22812 0.96462,-4.04271 5.66924,-10.09039 6.63013,-10.11014 0.99338,-0.01 3.48866,4.45626 3.61289,7.0247 0.11834,2.55164 -5.25828,13.13757 -5.25828,13.13757 l -5.15709,1.17598 z"
         inkscape:connector-curvature="0"
         style="fill:#3f7f00;fill-opacity:1;stroke:#ffffff;stroke-width:0.53438151;stroke-linecap:round;stroke-linejoin:round" />
      <path
         id="svg_365-0-0-8-7"
         d="m 398.26083,216.26231 c 0,0 3.80985,-15.54845 8.49964,-19.16381 4.67543,-3.61288 5.34115,-4.35622 5.34115,-4.35622 l 6.89408,1.71155 c 0,0 2.44443,3.74687 3.60828,5.68095 1.15546,1.93423 -2.83005,22.00236 -2.83005,22.00236 l -1.07692,2.8285 -20.43618,-8.70333 z"
         inkscape:connector-curvature="0"
         style="fill:#3f7f00;fill-opacity:1;stroke:#ffffff;stroke-width:0.53438151;stroke-linecap:round;stroke-linejoin:round" />
      <path
         id="svg_366-3-1-1-5"
         d="m 387.84257,234.36233 c 0,0 -2.49552,-19.98221 15.22763,-19.15113 9.72298,0.45603 15.23261,8.29146 15.23261,8.29146 l -12.77054,15.33119 -17.6897,-4.47153 z"
         inkscape:connector-curvature="0"
         style="fill:#3f7f00;fill-opacity:1;stroke:#ffffff;stroke-width:0.53438151;stroke-linecap:round;stroke-linejoin:round" />
      <path
         id="svg_367-4-1-0-1"
         d="m 442.26893,241.16178 c 0,0 3.59668,-8.59378 3.40901,-11.88113 -0.18957,-3.28522 -1.46412,-7.77941 -4.80892,-9.43539 -3.34298,-1.65816 -9.51974,5.52062 -11.71314,9.57277 -2.18773,4.06881 13.11305,11.74375 13.11305,11.74375 z"
         inkscape:connector-curvature="0"
         style="fill:#3f7f00;fill-opacity:1;stroke:#ffffff;stroke-width:0.53438151;stroke-linecap:round;stroke-linejoin:round" />
      <path
         id="svg_368-0-6-2-4"
         d="m 397.81122,266.0434 c 0,0 -14.19446,-10.25893 -15.34431,-11.95465 -1.13708,-1.69577 -5.71052,-8.69659 -1.74425,-14.72809 3.95656,-6.04403 10.48521,-5.78114 10.48521,-5.78114 0,0 7.19341,-0.24407 9.5811,1.67229 2.39183,1.91626 4.97507,6.02095 4.97507,6.02095 l -7.95282,24.77064 z"
         inkscape:connector-curvature="0"
         style="fill:#3f7f00;fill-opacity:1;stroke:#ffffff;stroke-width:0.53438151;stroke-linecap:round;stroke-linejoin:round" />
      <path
         id="svg_369-3-4-8-4"
         d="m 440.50544,247.1682 c 0,0 3.65874,-21.03828 -15.48499,-23.89561 -19.12923,-2.85963 -20.93452,6.6764 -23.16257,18.0613 -2.24347,11.37875 1.9756,13.14408 1.9756,13.14408 l 19.9844,14.55252 14.26988,-12.42309 2.41768,-9.4392 z"
         inkscape:connector-curvature="0"
         style="fill:#3f7f00;fill-opacity:1;stroke:#ffffff;stroke-width:0.53438151;stroke-linecap:round;stroke-linejoin:round" />
      <path
         id="svg_370-6-8-8-6"
         d="m 457.89799,283.4848 c 0,0 7.88793,-7.20014 8.45959,-11.59865 0.56332,-4.39834 0.40149,-8.79537 -4.70633,-12.25219 -5.09859,-3.44866 -15.9112,18.32071 -15.9112,18.32071 l 12.15794,5.53013 z"
         inkscape:connector-curvature="0"
         style="fill:#3f7f00;fill-opacity:1;stroke:#ffffff;stroke-width:0.53438151;stroke-linecap:round;stroke-linejoin:round" />
      <path
         id="svg_371-1-2-1-2"
         d="m 451.86416,276.75678 c 0,0 11.2451,-12.02042 11.63184,-17.02081 0.38978,-5.01296 -5.99447,-12.96191 -5.99447,-12.96191 l -14.15191,13.65396 8.51454,16.32876 z"
         inkscape:connector-curvature="0"
         style="fill:#3f7f00;fill-opacity:1;stroke:#ffffff;stroke-width:0.53438151;stroke-linecap:round;stroke-linejoin:round" />
      <path
         id="svg_372-2-0-1-2"
         d="m 450.81903,260.43496 c 0,0 11.24551,-9.33705 12.34982,-13.25857 1.09126,-3.92542 1.96088,-6.49937 -0.39415,-11.95358 -2.34636,-5.45022 -4.17585,-7.98042 -6.07427,-9.9026 -1.90028,-1.92005 -2.65406,-3.49444 -4.52953,-3.83455 -1.86866,-0.33405 -6.94359,0.48691 -9.17617,4.05622 -2.2345,3.57138 -4.65314,20.81361 -4.65314,20.81361 l 12.47746,14.07947 0,0 z"
         inkscape:connector-curvature="0"
         style="fill:#3f7f00;fill-opacity:1;stroke:#ffffff;stroke-width:0.53438151;stroke-linecap:round;stroke-linejoin:round" />
      <path
         id="svg_373-6-1-0-4"
         d="m 449.18217,278.14388 c 0,0 4.51585,-6.66833 4.62707,-14.59462 0.11081,-7.93047 -1.96908,-11.80254 -4.08971,-14.81163 -2.11678,-3.01328 -8.91754,-8.88961 -8.91754,-8.88961 0,0 -13.15988,9.85779 -15.62663,20.13715 -2.46031,10.28131 -3.13692,14.81541 -3.13692,14.81541 l 11.23512,8.72237 15.90861,-5.37907 z"
         inkscape:connector-curvature="0"
         style="fill:#3f7f00;fill-opacity:1;stroke:#ffffff;stroke-width:0.53438151;stroke-linecap:round;stroke-linejoin:round" />
      <path
         id="svg_374-5-8-1-9"
         d="m 405.5507,289.70008 -8.94108,-7.7778 -1.07028,-3.64147 -0.64496,-4.14851 c 0,0 -0.91727,-0.58799 -1.40193,-1.91764 -0.49572,-1.33572 -1.61537,-2.7786 -1.329,-4.98311 0.28675,-2.20033 -0.0369,-4.27356 0.22952,-6.71422 0.26628,-2.44065 0.53161,-7.32394 0.53161,-7.32394 l -0.80578,-0.72163 c 0,0 -0.73967,-4.01517 -0.29838,-4.5079 0.44509,-0.49699 1.99485,-3.57172 3.4762,-3.35498 1.49431,0.22068 5.16176,0.16773 5.16176,0.16773 0,0 5.96358,-0.469 15.26576,8.53162 9.29108,8.99447 9.81141,18.38194 9.81141,18.38194 l 0.37655,6.58722 -20.36139,11.42268 z"
         inkscape:connector-curvature="0"
         style="fill:#3f7f00;fill-opacity:1;stroke:#ffffff;stroke-width:0.53438151;stroke-linecap:round;stroke-linejoin:round" />
      <path
         id="svg_375-3-6-4-4"
         d="m 435.08017,293.62226 c 0,0 11.3706,10.18326 19.34944,2.60907 7.99643,-7.56609 6.41511,-15.22846 6.41511,-15.22846 l -10.66301,-10.43749 c 0,0 -9.81053,-0.0904 -13.87381,3.63819 -4.05062,3.72842 -8.63229,10.99231 -1.22773,19.41869 z"
         inkscape:connector-curvature="0"
         style="fill:#3f7f00;fill-opacity:1;stroke:#ffffff;stroke-width:0.53438151;stroke-linecap:round;stroke-linejoin:round" />
      <path
         id="svg_376-6-6-0-1"
         d="m 426.35616,293.39498 c 0,0 -2.52132,5.77166 -4.49187,6.90032 -1.97481,1.1287 -5.95747,1.80639 -10.54203,1.27146 -4.58352,-0.54549 -8.42466,-2.42781 -10.05602,-4.10316 -1.63288,-1.69199 -3.65945,-3.72513 -3.65945,-3.72513 0,0 3.3616,-5.91087 4.49147,-6.90452 1.13136,-0.99994 14.50275,0.496 14.50275,0.496 l 9.75515,6.06503 z"
         inkscape:connector-curvature="0"
         style="fill:#3f7f00;fill-opacity:1;stroke:#ffffff;stroke-width:0.53438151;stroke-linecap:round;stroke-linejoin:round" />
      <path
         style="fill:#3f7f00;fill-opacity:1;stroke:#ffffff;stroke-width:0.53438151;stroke-linecap:round;stroke-linejoin:round"
         inkscape:connector-curvature="0"
         d="m 426.07545,295.59306 c 0,0 -8.66727,1.60322 -11.81234,-0.54367 -3.14507,-2.14689 -9.37111,-8.39255 -9.37111,-8.39255 l 0.13831,-7.68385 c 0,0 5.25545,-5.33239 8.38791,-5.86445 3.13857,-0.53425 5.17409,-3.62936 7.95932,-1.35316 2.7879,2.28245 6.19614,3.31783 6.84325,3.67154 0.64676,0.3496 2.82627,1.41738 2.82627,1.41738 l 5.48901,4.91583 c 0,0 1.24669,1.56432 1.14021,3.02286 -0.1053,1.47105 0.10133,3.66545 -1.00568,4.90153 -1.11081,1.24033 -2.12844,2.10866 -3.97801,3.36099 -1.83975,1.24583 -3.82067,1.03712 -3.82067,1.03712 l -2.79645,1.51043 z"
         id="svg_378-4-8-2-7" />
      <line
         style="fill:#3f7f00;fill-opacity:1;stroke:#ffffff;stroke-width:0.53438151;stroke-linecap:round;stroke-linejoin:round"
         x1="432.41739"
         y1="290.12378"
         x2="427.63177"
         y2="295.19949"
         id="svg_379-1-4-4-9" />
      <path
         style="fill:#3f7f00;fill-opacity:1;stroke:#ffffff;stroke-width:0.53438151;stroke-linecap:round;stroke-linejoin:round"
         inkscape:connector-curvature="0"
         d="m 434.90815,312.0192 c 0,0 2.39072,-4.88205 6.20865,-7.10807 3.8092,-2.23006 7.88186,-3.47016 7.88186,-3.47016 0,0 -11.97338,-0.80268 -13.00326,0.71682 -1.02336,1.5215 -3.22026,3.97455 -3.22026,3.97455"
         id="svg_380-9-6-7-0" />
    </g>
    <text
       xml:space="preserve"
       style="font-size:8.79189301px;font-style:normal;font-weight:normal;line-height:125%;letter-spacing:0px;word-spacing:0px;fill:#3f7f00;fill-opacity:1;stroke:none;font-family:Sans"
       x="377.86508"
       y="288.72955"
       id="text4947-2"
       sodipodi:linespacing="125%"
       inkscape:export-filename="/home/juncher/Dropbox/Sociale Grupper/DQBREW/logo5.png"
       inkscape:export-xdpi="112.56094"
       inkscape:export-ydpi="112.56094"><tspan
         sodipodi:role="line"
         id="tspan4949-8"
         x="377.86508"
         y="288.72955"
         style="font-size:79.12703705px;font-style:normal;font-variant:normal;font-weight:bold;font-stretch:normal;fill:#3f7f00;fill-opacity:1;font-family:Georgia;-inkscape-font-specification:Georgia Bold">BREW</tspan></text>
  </g>
</svg>
